<!DOCTYPE svg PUBLIC "-//W3C//DTD SVG 20010904//EN" "http://www.w3.org/TR/2001/REC-SVG-20010904/DTD/svg10.dtd">
<svg version="1.0" xmlns="http://www.w3.org/2000/svg" width="614px" height="705px" viewBox="0 0 6140 7050" preserveAspectRatio="xMidYMid meet">
<g id="layer101" fill="#2c54d9" stroke="none">
 <path d="M1545 6172 l-1520 -878 -6 -509 c-4 -281 -9 -1077 -13 -1771 l-6 -1261 1537 -877 1536 -876 831 479 c457 264 1142 659 1521 878 l690 399 6 424 c4 234 9 1031 13 1771 l6 1346 -1531 874 c-843 481 -1535 875 -1538 876 -3 2 -690 -392 -1526 -875z"/>
 </g>
<g id="layer102" fill="#add1f1" stroke="none">
 <path d="M1545 6172 l-1520 -878 -6 -509 c-4 -281 -9 -1077 -13 -1771 l-6 -1261 1537 -877 1536 -876 831 479 c457 264 1142 659 1521 878 l690 399 6 424 c4 234 9 1031 13 1771 l6 1346 -1531 874 c-843 481 -1535 875 -1538 876 -3 2 -690 -392 -1526 -875z m1708 -632 c134 -20 239 -97 295 -218 22 -47 27 -71 27 -142 0 -77 -3 -92 -33 -152 -41 -84 -120 -158 -200 -188 -50 -19 -75 -22 -201 -21 -283 3 -492 -48 -707 -170 -595 -340 -822 -1084 -517 -1694 333 -662 1156 -911 1799 -544 279 160 486 413 588 720 48 143 67 287 64 473 -2 137 0 157 21 208 60 155 243 260 395 230 122 -25 216 -94 267 -197 81 -166 57 -607 -52 -939 -98 -299 -267 -575 -487 -794 -314 -313 -678 -500 -1127 -579 -152 -26 -489 -23 -649 6 -648 117 -1182 515 -1474 1097 -235 468 -275 1018 -111 1518 193 588 643 1054 1227 1270 163 60 309 93 527 119 66 8 284 6 348 -3z m1322 -35 c181 -38 361 -178 444 -345 55 -112 75 -208 68 -330 -10 -172 -68 -301 -192 -426 -65 -65 -98 -90 -167 -123 -143 -69 -273 -86 -426 -55 -250 50 -456 256 -506 506 -31 153 -14 283 55 426 33 69 58 102 123 167 163 162 378 227 601 180z"/>
 </g>

</svg>